<mxfile host="Electron" modified="2023-08-22T10:30:37.378Z" agent="Mozilla/5.0 (Windows NT 10.0; Win64; x64) AppleWebKit/537.36 (KHTML, like Gecko) draw.io/21.6.8 Chrome/114.0.5735.289 Electron/25.5.0 Safari/537.36" etag="WHjEKrvJshaG6jkGes56" version="21.6.8" type="device">
  <diagram name="第 1 页" id="dGZlpcpdzo4Bw1gSI3Yw">
    <mxGraphModel dx="607" dy="844" grid="1" gridSize="10" guides="1" tooltips="1" connect="1" arrows="1" fold="1" page="1" pageScale="1" pageWidth="827" pageHeight="1169" math="0" shadow="0">
      <root>
        <mxCell id="0" />
        <mxCell id="1" parent="0" />
        <mxCell id="e_kIcBleLqbIK-r7OvQe-89" value="&lt;font style=&quot;font-size: 14px;&quot;&gt;数据分析&lt;/font&gt;" style="rounded=0;whiteSpace=wrap;html=1;verticalAlign=top;fontSize=14;fillColor=#FFFFFF;strokeColor=#6c8ebf;" parent="1" vertex="1">
          <mxGeometry x="940" y="170" width="196" height="80" as="geometry" />
        </mxCell>
        <mxCell id="e_kIcBleLqbIK-r7OvQe-90" value="计算存储引擎" style="rounded=0;whiteSpace=wrap;html=1;verticalAlign=top;fontSize=14;fillColor=#FFFFFF;strokeColor=#82b366;" parent="1" vertex="1">
          <mxGeometry x="940" y="582.5" width="600" height="80" as="geometry" />
        </mxCell>
        <mxCell id="e_kIcBleLqbIK-r7OvQe-91" value="阿里自研大数据计算服务（MaxCompute）" style="rounded=0;whiteSpace=wrap;html=1;fillColor=#d5e8d4;strokeColor=#82b366;" parent="1" vertex="1">
          <mxGeometry x="953" y="613" width="280" height="40" as="geometry" />
        </mxCell>
        <mxCell id="e_kIcBleLqbIK-r7OvQe-92" value="交互式分析引擎（Hologers）" style="rounded=0;whiteSpace=wrap;html=1;container=0;fontSize=12;fillColor=#d5e8d4;strokeColor=#82b366;" parent="1" vertex="1">
          <mxGeometry x="1249" y="612" width="280" height="40" as="geometry" />
        </mxCell>
        <mxCell id="e_kIcBleLqbIK-r7OvQe-93" value="数据集成" style="rounded=0;whiteSpace=wrap;html=1;fontSize=14;verticalAlign=top;fillColor=#FFFFFF;strokeColor=#9673a6;" parent="1" vertex="1">
          <mxGeometry x="940" y="493" width="600" height="80" as="geometry" />
        </mxCell>
        <mxCell id="e_kIcBleLqbIK-r7OvQe-94" value="全量同步" style="rounded=0;whiteSpace=wrap;html=1;fillColor=#d0cee2;strokeColor=#56517e;" parent="1" vertex="1">
          <mxGeometry x="953" y="523" width="100" height="40" as="geometry" />
        </mxCell>
        <mxCell id="e_kIcBleLqbIK-r7OvQe-95" value="增量同步" style="rounded=0;whiteSpace=wrap;html=1;fillColor=#d0cee2;strokeColor=#56517e;" parent="1" vertex="1">
          <mxGeometry x="1070" y="523" width="100" height="40" as="geometry" />
        </mxCell>
        <mxCell id="e_kIcBleLqbIK-r7OvQe-96" value="实时同步" style="rounded=0;whiteSpace=wrap;html=1;fillColor=#d0cee2;strokeColor=#56517e;" parent="1" vertex="1">
          <mxGeometry x="1190" y="523" width="100" height="40" as="geometry" />
        </mxCell>
        <mxCell id="e_kIcBleLqbIK-r7OvQe-97" value="API采集" style="rounded=0;whiteSpace=wrap;html=1;fillColor=#d0cee2;strokeColor=#56517e;" parent="1" vertex="1">
          <mxGeometry x="1311" y="523" width="100" height="40" as="geometry" />
        </mxCell>
        <mxCell id="e_kIcBleLqbIK-r7OvQe-98" value="数据转换" style="rounded=0;whiteSpace=wrap;html=1;fillColor=#d0cee2;strokeColor=#56517e;" parent="1" vertex="1">
          <mxGeometry x="1431" y="523" width="100" height="40" as="geometry" />
        </mxCell>
        <mxCell id="e_kIcBleLqbIK-r7OvQe-99" value="规范设计" style="rounded=0;whiteSpace=wrap;html=1;fontSize=14;verticalAlign=top;fillColor=#FFFFFF;strokeColor=#b85450;" parent="1" vertex="1">
          <mxGeometry x="940" y="346" width="297" height="140" as="geometry" />
        </mxCell>
        <mxCell id="e_kIcBleLqbIK-r7OvQe-100" value="数仓规划" style="rounded=0;whiteSpace=wrap;html=1;fillColor=#fad9d5;strokeColor=#ae4132;" parent="1" vertex="1">
          <mxGeometry x="961" y="380" width="120" height="40" as="geometry" />
        </mxCell>
        <mxCell id="e_kIcBleLqbIK-r7OvQe-101" value="数据标准" style="rounded=0;whiteSpace=wrap;html=1;fillColor=#fad9d5;strokeColor=#ae4132;" parent="1" vertex="1">
          <mxGeometry x="961" y="436" width="120" height="40" as="geometry" />
        </mxCell>
        <mxCell id="e_kIcBleLqbIK-r7OvQe-102" value="数据指标" style="rounded=0;whiteSpace=wrap;html=1;fillColor=#fad9d5;strokeColor=#ae4132;" parent="1" vertex="1">
          <mxGeometry x="1106" y="436" width="120" height="40" as="geometry" />
        </mxCell>
        <mxCell id="e_kIcBleLqbIK-r7OvQe-103" value="数据建模" style="rounded=0;whiteSpace=wrap;html=1;fillColor=#fad9d5;strokeColor=#ae4132;" parent="1" vertex="1">
          <mxGeometry x="1106" y="380" width="120" height="40" as="geometry" />
        </mxCell>
        <mxCell id="e_kIcBleLqbIK-r7OvQe-104" value="数据开发" style="rounded=0;whiteSpace=wrap;html=1;fontSize=14;verticalAlign=top;fillColor=#FFFFFF;strokeColor=#b85450;" parent="1" vertex="1">
          <mxGeometry x="1244" y="346" width="297" height="140" as="geometry" />
        </mxCell>
        <mxCell id="e_kIcBleLqbIK-r7OvQe-105" value="离线 / 交互式分析集成开发环境" style="rounded=0;whiteSpace=wrap;html=1;fillColor=#fad9d5;strokeColor=#ae4132;" parent="1" vertex="1">
          <mxGeometry x="1262.5" y="380" width="260" height="40" as="geometry" />
        </mxCell>
        <mxCell id="e_kIcBleLqbIK-r7OvQe-107" value="任务运维和监控" style="rounded=0;whiteSpace=wrap;html=1;fillColor=#fad9d5;strokeColor=#ae4132;" parent="1" vertex="1">
          <mxGeometry x="1402.5" y="436" width="120" height="40" as="geometry" />
        </mxCell>
        <mxCell id="e_kIcBleLqbIK-r7OvQe-108" value="数据治理" style="rounded=0;whiteSpace=wrap;html=1;fontSize=14;verticalAlign=top;fillColor=#FFFFFF;strokeColor=#d79b00;" parent="1" vertex="1">
          <mxGeometry x="940" y="259" width="600" height="80" as="geometry" />
        </mxCell>
        <mxCell id="e_kIcBleLqbIK-r7OvQe-109" value="数据质量" style="rounded=0;whiteSpace=wrap;html=1;fillColor=#fad7ac;strokeColor=#b46504;" parent="1" vertex="1">
          <mxGeometry x="961" y="288" width="120" height="40" as="geometry" />
        </mxCell>
        <mxCell id="e_kIcBleLqbIK-r7OvQe-110" value="数据资产" style="rounded=0;whiteSpace=wrap;html=1;fillColor=#fad7ac;strokeColor=#b46504;" parent="1" vertex="1">
          <mxGeometry x="1106" y="288" width="120" height="40" as="geometry" />
        </mxCell>
        <mxCell id="e_kIcBleLqbIK-r7OvQe-111" value="数据安全" style="rounded=0;whiteSpace=wrap;html=1;fillColor=#fad7ac;strokeColor=#b46504;" parent="1" vertex="1">
          <mxGeometry x="1251" y="288" width="120" height="40" as="geometry" />
        </mxCell>
        <mxCell id="e_kIcBleLqbIK-r7OvQe-112" value="数据治理中心" style="rounded=0;whiteSpace=wrap;html=1;fillColor=#fad7ac;strokeColor=#b46504;" parent="1" vertex="1">
          <mxGeometry x="1400" y="288" width="120" height="40" as="geometry" />
        </mxCell>
        <mxCell id="e_kIcBleLqbIK-r7OvQe-113" value="数据服务" style="rounded=0;whiteSpace=wrap;html=1;fontSize=14;verticalAlign=top;fillColor=#FFFFFF;strokeColor=#6c8ebf;" parent="1" vertex="1">
          <mxGeometry x="1350" y="170" width="190" height="80" as="geometry" />
        </mxCell>
        <mxCell id="e_kIcBleLqbIK-r7OvQe-114" value="自助分析" style="rounded=0;whiteSpace=wrap;html=1;fillColor=#dae8fc;strokeColor=#6c8ebf;" parent="1" vertex="1">
          <mxGeometry x="953" y="200" width="80" height="40" as="geometry" />
        </mxCell>
        <mxCell id="e_kIcBleLqbIK-r7OvQe-115" value="电子报表" style="rounded=0;whiteSpace=wrap;html=1;fillColor=#dae8fc;strokeColor=#6c8ebf;" parent="1" vertex="1">
          <mxGeometry x="1045" y="200" width="80" height="40" as="geometry" />
        </mxCell>
        <mxCell id="e_kIcBleLqbIK-r7OvQe-116" value="API接口" style="rounded=0;whiteSpace=wrap;html=1;fillColor=#dae8fc;strokeColor=#6c8ebf;" parent="1" vertex="1">
          <mxGeometry x="1361" y="200" width="80" height="40" as="geometry" />
        </mxCell>
        <mxCell id="e_kIcBleLqbIK-r7OvQe-117" value="服务编排" style="rounded=0;whiteSpace=wrap;html=1;fillColor=#dae8fc;strokeColor=#6c8ebf;" parent="1" vertex="1">
          <mxGeometry x="1451" y="200" width="80" height="40" as="geometry" />
        </mxCell>
        <mxCell id="e_kIcBleLqbIK-r7OvQe-118" value="可视化看板" style="rounded=0;whiteSpace=wrap;html=1;verticalAlign=top;fontSize=14;fillColor=#FFFFFF;strokeColor=#6c8ebf;" parent="1" vertex="1">
          <mxGeometry x="1143" y="170" width="196" height="80" as="geometry" />
        </mxCell>
        <mxCell id="e_kIcBleLqbIK-r7OvQe-119" value="BI工具" style="rounded=0;whiteSpace=wrap;html=1;fillColor=#dae8fc;strokeColor=#6c8ebf;" parent="1" vertex="1">
          <mxGeometry x="1157" y="200" width="80" height="40" as="geometry" />
        </mxCell>
        <mxCell id="e_kIcBleLqbIK-r7OvQe-120" value="实时大屏" style="rounded=0;whiteSpace=wrap;html=1;fillColor=#dae8fc;strokeColor=#6c8ebf;" parent="1" vertex="1">
          <mxGeometry x="1251" y="200" width="80" height="40" as="geometry" />
        </mxCell>
        <mxCell id="e_kIcBleLqbIK-r7OvQe-123" value="任务统一调度" style="rounded=0;whiteSpace=wrap;html=1;fillColor=#fad9d5;strokeColor=#ae4132;" parent="1" vertex="1">
          <mxGeometry x="1262.5" y="436" width="120" height="40" as="geometry" />
        </mxCell>
      </root>
    </mxGraphModel>
  </diagram>
</mxfile>
